<?xml version="1.0" encoding="UTF-8" standalone="no"?>
<!DOCTYPE svg PUBLIC "-//W3C//DTD SVG 1.1//EN" "http://www.w3.org/Graphics/SVG/1.1/DTD/svg11.dtd">
<svg width="100%" height="100%" viewBox="0 0 512 512" version="1.1" xmlns="http://www.w3.org/2000/svg" xmlns:xlink="http://www.w3.org/1999/xlink" xml:space="preserve" xmlns:serif="http://www.serif.com/" style="fill-rule:evenodd;clip-rule:evenodd;stroke-linejoin:round;stroke-miterlimit:2;">
    <g transform="matrix(1.35419,0,0,1.35419,-27.6933,-26.9054)">
        <circle cx="209.494" cy="208.912" r="188.305" style="fill:rgb(74,144,226);"/>
    </g>
    <g transform="matrix(2.19563,0,0,2.19563,115.48,115.48)">
        <path d="M124,60L120,60C120,51.164 112.836,44 104,44L88,44C82.152,44 77.094,47.168 74.301,51.852C71.512,49.484 67.945,48 64,48C60.055,48 56.488,49.484 53.699,51.852C50.906,47.168 45.848,44 40,44L24,44C15.164,44 8,51.164 8,60L4,60C1.789,60 0,61.789 0,64C0,66.211 1.789,68 4,68L8,68C8,76.836 15.164,84 24,84L40,84C48.836,84 56,76.836 56,68L56,64C56,59.59 59.59,56 64,56C68.41,56 72,59.59 72,64L72,68C72,76.836 79.164,84 88,84L104,84C112.836,84 120,76.836 120,68L124,68C126.211,68 128,66.211 128,64C128,61.789 126.211,60 124,60ZM48,68C48,72.41 44.41,76 40,76L24,76C19.59,76 16,72.41 16,68L16,60C16,55.59 19.59,52 24,52L40,52C44.41,52 48,55.59 48,60L48,68ZM112,68C112,72.41 108.41,76 104,76L88,76C83.59,76 80,72.41 80,68L80,60C80,55.59 83.59,52 88,52L104,52C108.41,52 112,55.59 112,60L112,68Z" style="fill:white;fill-rule:nonzero;"/>
    </g>
    <g transform="matrix(15.3213,0,0,15.3213,72.1446,72.1446)">
        <path d="M8,2L3,2C2.451,2 2,2.451 2,3L2,8C2,8.549 2.451,9 3,9C3.549,9 4,8.549 4,8L4,4L8,4C8.549,4 9,3.549 9,3C9,2.451 8.549,2 8,2ZM8,20L4,20L4,16C4,15.451 3.549,15 3,15C2.451,15 2,15.451 2,16L2,21C2,21.549 2.451,22 3,22L8,22C8.549,22 9,21.549 9,21C9,20.451 8.549,20 8,20ZM21,2L16,2C15.451,2 15,2.451 15,3C15,3.549 15.451,4 16,4L20,4L20,8C20,8.549 20.451,9 21,9C21.549,9 22,8.549 22,8L22,3C22,2.451 21.549,2 21,2ZM21,15C20.451,15 20,15.451 20,16L20,20L16,20C15.451,20 15,20.451 15,21C15,21.549 15.451,22 16,22L21,22C21.549,22 22,21.549 22,21L22,16C22,15.451 21.549,15 21,15Z" style="fill:white;fill-opacity:0.59;fill-rule:nonzero;"/>
    </g>
</svg>
